Coordinates
version=1
nRows=7
nColumns=33
inDegrees=yes

Units are S.I. units (second, meters, Newtons, ...)
Angles are in degrees.

endheader
time	ground_thorax_rot_x	ground_thorax_rot_y	ground_thorax_rot_z	ground_thorax_tx	ground_thorax_ty	ground_thorax_tz	clav_prot_r	clav_elev_r	scapula_abduction_r	scapula_elevation_r	scapula_upward_rot_r	scapula_winging_r	shoulder_elv_r	plane_of_elev_r	axial_rot_r	elbow_flexion_r	pro_sup_r	wrist_flex_r	wrist_dev_r	clav_prot_l	clav_elev_l	scapula_abduction_l	scapula_elevation_l	scapula_upward_rot_l	scapula_winging_l	shoulder_elv_l	plane_of_elev_l	axial_rot_l	elbow_flexion_l	pro_sup_l	wrist_flex_l	wrist_dev_l
      4.33000000	     39.03780686	      3.41592465	     12.71634638	   -214.61080664	    879.38208599	     -6.16079831	     12.80502472	     36.49972015	     35.80637237	     45.00000000	    -44.68879453	   2073.79462212	   -471.65047337	    148.07447127	   -111.21996860	     15.38053177	     46.33186382	     18.86882162	      5.90160041	     12.60542174	    -45.00000000	    -36.62460092	     45.00000000	    -45.00000000	    461.11482770	  -2613.64126256	    143.94856933	    138.18991023	    372.15257296	     39.23977196	      7.26440660	    -22.84409507
      4.34000000	     39.03008209	      3.36222900	     12.55960118	   -212.95184356	    881.08502875	     -6.00519154	     12.65928247	     36.58724723	     35.95434703	     45.00000000	    -44.09520553	   2073.65449745	   -471.51724101	    148.13363543	   -111.34839348	     15.67709912	     48.04982435	     18.90979340	      5.73283542	     12.57654241	    -45.00000000	    -36.80630493	     45.00000000	    -45.00000000	    461.04198011	  -2613.39770445	    143.70854971	    138.77235128	    372.29873721	     39.90869491	      7.07118676	    -22.83834828
      4.35000000	     39.05281033	      3.18982549	     12.29645756	   -211.21381842	    882.89885450	     -5.83706211	     13.34648696	     36.74429737	     36.39069934	     45.00000000	    -44.22168533	   2073.21892797	   -471.55093075	    147.61043033	   -111.25983174	     15.76886365	     50.20739113	     18.80392132	      5.50250675	     12.52013549	    -45.00000000	    -37.10206468	     45.00000000	    -45.00000000	    460.82184968	  -2613.29831444	    143.59290333	    139.61480087	    372.33506225	     40.70538995	      7.01096890	    -22.91178723
      4.36000000	     38.97490708	      3.08057707	     12.08479134	   -209.39755666	    884.79705922	     -5.65331791	     13.02781054	     36.84158103	     36.59569867	     45.00000000	    -43.58137657	   2073.06814276	   -471.47383711	    147.61182531	   -111.35662409	     16.10171608	     52.15716543	     18.83169433	      5.34252637	     12.70997421	    -45.00000000	    -37.25527005	     45.00000000	    -45.00000000	    460.80179292	  -2612.98962351	    143.25532244	    140.40950690	    372.36350536	     41.34068474	      6.79274288	    -22.83716149
      4.37000000	     38.96603091	      3.02750270	     11.91891640	   -207.49946947	    886.75382114	     -5.45370580	     12.76666333	     36.91569332	     36.73204271	     45.00000000	    -42.76384777	   2072.97718606	   -471.30851393	    147.72677219	   -111.56833196	     16.38554846	     53.98650017	     18.85342974	      5.17393099	     12.77010691	    -45.00000000	    -37.40977219	     45.00000000	    -45.00000000	    460.79117251	  -2612.72898478	    142.90270813	    141.26591712	    372.46581045	     41.85543430	      6.62313764	    -22.81130199
      4.38000000	     38.95805913	      3.03099512	     11.71195769	   -205.52030586	    888.73601992	     -5.24169768	     12.50054961	     36.97691113	     36.80882424	     45.00000000	    -41.98854240	   2072.90382774	   -471.07955435	    147.82500926	   -111.93142971	     16.60086956	     55.71778423	     18.83421972	      4.99011294	     12.87372608	    -45.00000000	    -37.67121821	     45.00000000	    -45.00000000	    460.72504332	  -2612.50463506	    142.56633191	    142.06735942	    372.54740565	     42.29024262	      6.55223553	    -22.85138438
      4.39000000	     38.94115280	      2.89637900	     11.42274905	   -203.45523987	    890.71573919	     -5.02270055	     12.97795361	     37.17440989	     37.19440704	     45.00000000	    -41.74091380	   2072.52096953	   -471.06143796	    147.46883811	   -111.97135703	     16.76269673	     57.61832714	     18.76182031	      4.79613490	     12.81932366	    -45.00000000	    -37.87712383	     45.00000000	    -45.00000000	    460.50047027	  -2612.27092001	    142.33492929	    143.16804036	    372.56881802	     42.67429308	      6.49591785	    -22.88518860
